solid OpenSCAD_Model
  facet normal -0.866025 -0.5 0
    outer loop
      vertex 8.34863 0 -0.44
      vertex 6.67432 2.9 1.75
      vertex 6.67432 2.9 -0.44
    endloop
  endfacet
  facet normal -0.866025 -0.5 0
    outer loop
      vertex 6.67432 2.9 1.75
      vertex 8.34863 0 -0.44
      vertex 8.34863 0 1.75
    endloop
  endfacet
  facet normal 0.866025 -0.5 0
    outer loop
      vertex 1.65137 0 1.75
      vertex 3.32568 2.9 -0.44
      vertex 3.32568 2.9 1.75
    endloop
  endfacet
  facet normal 0.866025 -0.5 0
    outer loop
      vertex 3.32568 2.9 -0.44
      vertex 1.65137 0 1.75
      vertex 1.65137 0 -0.44
    endloop
  endfacet
  facet normal 0 -1 0
    outer loop
      vertex 3.32568 2.9 -0.44
      vertex 6.67432 2.9 1.75
      vertex 3.32568 2.9 1.75
    endloop
  endfacet
  facet normal 0 -1 -0
    outer loop
      vertex 6.67432 2.9 1.75
      vertex 3.32568 2.9 -0.44
      vertex 6.67432 2.9 -0.44
    endloop
  endfacet
  facet normal -0.866025 0.5 0
    outer loop
      vertex 6.67432 -2.9 -0.44
      vertex 8.34863 0 1.75
      vertex 8.34863 0 -0.44
    endloop
  endfacet
  facet normal -0.866025 0.5 0
    outer loop
      vertex 8.34863 0 1.75
      vertex 6.67432 -2.9 -0.44
      vertex 6.67432 -2.9 1.75
    endloop
  endfacet
  facet normal 0 0 1
    outer loop
      vertex 8.34863 0 -0.44
      vertex 7.1974 0.483683 -0.44
      vertex 7.25 0 -0.44
    endloop
  endfacet
  facet normal 0 0 1
    outer loop
      vertex 8.34863 0 -0.44
      vertex 7.04204 0.94475 -0.44
      vertex 7.1974 0.483683 -0.44
    endloop
  endfacet
  facet normal 0 0 1
    outer loop
      vertex 6.67432 2.9 -0.44
      vertex 7.04204 0.94475 -0.44
      vertex 8.34863 0 -0.44
    endloop
  endfacet
  facet normal 0 0 1
    outer loop
      vertex 7.04204 0.94475 -0.44
      vertex 6.67432 2.9 -0.44
      vertex 6.79121 1.36164 -0.44
    endloop
  endfacet
  facet normal 0 0 1
    outer loop
      vertex 6.67432 2.9 -0.44
      vertex 6.45662 1.71486 -0.44
      vertex 6.79121 1.36164 -0.44
    endloop
  endfacet
  facet normal 0 0 1
    outer loop
      vertex 6.67432 2.9 -0.44
      vertex 6.05392 1.9879 -0.44
      vertex 6.45662 1.71486 -0.44
    endloop
  endfacet
  facet normal 0 0 1
    outer loop
      vertex 6.67432 2.9 -0.44
      vertex 5.60194 2.16799 -0.44
      vertex 6.05392 1.9879 -0.44
    endloop
  endfacet
  facet normal 0 0 1
    outer loop
      vertex 6.67432 2.9 -0.44
      vertex 5.12181 2.2467 -0.44
      vertex 5.60194 2.16799 -0.44
    endloop
  endfacet
  facet normal -0 0 1
    outer loop
      vertex 3.32568 2.9 -0.44
      vertex 5.12181 2.2467 -0.44
      vertex 6.67432 2.9 -0.44
    endloop
  endfacet
  facet normal 0 0 1
    outer loop
      vertex 5.12181 2.2467 -0.44
      vertex 3.32568 2.9 -0.44
      vertex 4.63599 2.22036 -0.44
    endloop
  endfacet
  facet normal 0 0 1
    outer loop
      vertex 4.63599 2.22036 -0.44
      vertex 3.32568 2.9 -0.44
      vertex 4.16719 2.0902 -0.44
    endloop
  endfacet
  facet normal 0 0 1
    outer loop
      vertex 3.32568 2.9 -0.44
      vertex 3.73733 1.8623 -0.44
      vertex 4.16719 2.0902 -0.44
    endloop
  endfacet
  facet normal 0 0 1
    outer loop
      vertex 3.32568 2.9 -0.44
      vertex 3.36651 1.54732 -0.44
      vertex 3.73733 1.8623 -0.44
    endloop
  endfacet
  facet normal 0 0 1
    outer loop
      vertex 3.32568 2.9 -0.44
      vertex 3.07207 1.16 -0.44
      vertex 3.36651 1.54732 -0.44
    endloop
  endfacet
  facet normal 0 0 1
    outer loop
      vertex 1.65137 0 -0.44
      vertex 3.07207 1.16 -0.44
      vertex 3.32568 2.9 -0.44
    endloop
  endfacet
  facet normal 0 0 1
    outer loop
      vertex 3.07207 1.16 -0.44
      vertex 1.65137 0 -0.44
      vertex 2.86778 0.718428 -0.44
    endloop
  endfacet
  facet normal 0 0 1
    outer loop
      vertex 2.76319 0.243267 -0.44
      vertex 1.65137 0 -0.44
      vertex 2.76319 -0.243267 -0.44
    endloop
  endfacet
  facet normal 0 0 1
    outer loop
      vertex 2.86778 0.718428 -0.44
      vertex 1.65137 0 -0.44
      vertex 2.76319 0.243267 -0.44
    endloop
  endfacet
  facet normal 0 0 1
    outer loop
      vertex 7.1974 -0.483683 -0.44
      vertex 8.34863 0 -0.44
      vertex 7.25 0 -0.44
    endloop
  endfacet
  facet normal 0 0 1
    outer loop
      vertex 7.04204 -0.94475 -0.44
      vertex 8.34863 0 -0.44
      vertex 7.1974 -0.483683 -0.44
    endloop
  endfacet
  facet normal 0 0 1
    outer loop
      vertex 6.67432 -2.9 -0.44
      vertex 7.04204 -0.94475 -0.44
      vertex 6.79121 -1.36164 -0.44
    endloop
  endfacet
  facet normal -0 0 1
    outer loop
      vertex 7.04204 -0.94475 -0.44
      vertex 6.67432 -2.9 -0.44
      vertex 8.34863 0 -0.44
    endloop
  endfacet
  facet normal -0 0 1
    outer loop
      vertex 6.45662 -1.71486 -0.44
      vertex 6.67432 -2.9 -0.44
      vertex 6.79121 -1.36164 -0.44
    endloop
  endfacet
  facet normal -0 0 1
    outer loop
      vertex 6.05392 -1.9879 -0.44
      vertex 6.67432 -2.9 -0.44
      vertex 6.45662 -1.71486 -0.44
    endloop
  endfacet
  facet normal -0 0 1
    outer loop
      vertex 5.60194 -2.16799 -0.44
      vertex 6.67432 -2.9 -0.44
      vertex 6.05392 -1.9879 -0.44
    endloop
  endfacet
  facet normal -0 0 1
    outer loop
      vertex 5.12181 -2.2467 -0.44
      vertex 6.67432 -2.9 -0.44
      vertex 5.60194 -2.16799 -0.44
    endloop
  endfacet
  facet normal 0 0 1
    outer loop
      vertex 3.32568 -2.9 -0.44
      vertex 5.12181 -2.2467 -0.44
      vertex 4.63599 -2.22036 -0.44
    endloop
  endfacet
  facet normal 0 0 1
    outer loop
      vertex 3.32568 -2.9 -0.44
      vertex 4.63599 -2.22036 -0.44
      vertex 4.16719 -2.0902 -0.44
    endloop
  endfacet
  facet normal 0 0 1
    outer loop
      vertex 5.12181 -2.2467 -0.44
      vertex 3.32568 -2.9 -0.44
      vertex 6.67432 -2.9 -0.44
    endloop
  endfacet
  facet normal 0 0 1
    outer loop
      vertex 3.73733 -1.8623 -0.44
      vertex 3.32568 -2.9 -0.44
      vertex 4.16719 -2.0902 -0.44
    endloop
  endfacet
  facet normal 0 0 1
    outer loop
      vertex 3.36651 -1.54732 -0.44
      vertex 3.32568 -2.9 -0.44
      vertex 3.73733 -1.8623 -0.44
    endloop
  endfacet
  facet normal 0 0 1
    outer loop
      vertex 3.07207 -1.16 -0.44
      vertex 3.32568 -2.9 -0.44
      vertex 3.36651 -1.54732 -0.44
    endloop
  endfacet
  facet normal 0 0 1
    outer loop
      vertex 1.65137 0 -0.44
      vertex 3.07207 -1.16 -0.44
      vertex 2.86778 -0.718428 -0.44
    endloop
  endfacet
  facet normal 0 0 1
    outer loop
      vertex 1.65137 0 -0.44
      vertex 2.86778 -0.718428 -0.44
      vertex 2.76319 -0.243267 -0.44
    endloop
  endfacet
  facet normal 0 0 1
    outer loop
      vertex 3.07207 -1.16 -0.44
      vertex 1.65137 0 -0.44
      vertex 3.32568 -2.9 -0.44
    endloop
  endfacet
  facet normal 0 1 -0
    outer loop
      vertex 6.67432 -2.9 -0.44
      vertex 3.32568 -2.9 1.75
      vertex 6.67432 -2.9 1.75
    endloop
  endfacet
  facet normal 0 1 0
    outer loop
      vertex 3.32568 -2.9 1.75
      vertex 6.67432 -2.9 -0.44
      vertex 3.32568 -2.9 -0.44
    endloop
  endfacet
  facet normal 0.866025 0.5 0
    outer loop
      vertex 3.32568 -2.9 1.75
      vertex 1.65137 0 -0.44
      vertex 1.65137 0 1.75
    endloop
  endfacet
  facet normal 0.866025 0.5 0
    outer loop
      vertex 1.65137 0 -0.44
      vertex 3.32568 -2.9 1.75
      vertex 3.32568 -2.9 -0.44
    endloop
  endfacet
  facet normal -0.856857 -0.515554 0
    outer loop
      vertex 7.04204 0.94475 -1.75
      vertex 6.79121 1.36164 -0.44
      vertex 6.79121 1.36164 -1.75
    endloop
  endfacet
  facet normal -0.856857 -0.515554 0
    outer loop
      vertex 6.79121 1.36164 -0.44
      vertex 7.04204 0.94475 -1.75
      vertex 7.04204 0.94475 -0.44
    endloop
  endfacet
  facet normal 0.976621 0.21497 0
    outer loop
      vertex 2.86778 -0.718428 -0.44
      vertex 2.76319 -0.243267 -1.75
      vertex 2.76319 -0.243267 -0.44
    endloop
  endfacet
  facet normal 0.976621 0.21497 0
    outer loop
      vertex 2.76319 -0.243267 -1.75
      vertex 2.86778 -0.718428 -0.44
      vertex 2.86778 -0.718428 -1.75
    endloop
  endfacet
  facet normal 0.976621 -0.21497 0
    outer loop
      vertex 2.76319 0.243267 -0.44
      vertex 2.86778 0.718428 -1.75
      vertex 2.86778 0.718428 -0.44
    endloop
  endfacet
  facet normal 0.976621 -0.21497 0
    outer loop
      vertex 2.86778 0.718428 -1.75
      vertex 2.76319 0.243267 -0.44
      vertex 2.76319 0.243267 -1.75
    endloop
  endfacet
  facet normal -0.725994 -0.687701 0
    outer loop
      vertex 6.79121 1.36164 -1.75
      vertex 6.45662 1.71486 -0.44
      vertex 6.45662 1.71486 -1.75
    endloop
  endfacet
  facet normal -0.725994 -0.687701 0
    outer loop
      vertex 6.45662 1.71486 -0.44
      vertex 6.79121 1.36164 -1.75
      vertex 6.79121 1.36164 -0.44
    endloop
  endfacet
  facet normal -0.161781 -0.986827 0
    outer loop
      vertex 5.12181 2.2467 -1.75
      vertex 5.60194 2.16799 -0.44
      vertex 5.12181 2.2467 -0.44
    endloop
  endfacet
  facet normal -0.161781 -0.986827 -0
    outer loop
      vertex 5.60194 2.16799 -0.44
      vertex 5.12181 2.2467 -1.75
      vertex 5.60194 2.16799 -1.75
    endloop
  endfacet
  facet normal 0.267527 -0.96355 0
    outer loop
      vertex 4.16719 2.0902 -1.75
      vertex 4.63599 2.22036 -0.44
      vertex 4.16719 2.0902 -0.44
    endloop
  endfacet
  facet normal 0.267527 -0.96355 0
    outer loop
      vertex 4.63599 2.22036 -0.44
      vertex 4.16719 2.0902 -1.75
      vertex 4.63599 2.22036 -1.75
    endloop
  endfacet
  facet normal 0.907575 -0.419889 0
    outer loop
      vertex 2.86778 0.718428 -0.44
      vertex 3.07207 1.16 -1.75
      vertex 3.07207 1.16 -0.44
    endloop
  endfacet
  facet normal 0.907575 -0.419889 0
    outer loop
      vertex 3.07207 1.16 -1.75
      vertex 2.86778 0.718428 -0.44
      vertex 2.86778 0.718428 -1.75
    endloop
  endfacet
  facet normal -0.994138 0.108121 0
    outer loop
      vertex 7.1974 -0.483683 -1.75
      vertex 7.25 0 -0.44
      vertex 7.25 0 -1.75
    endloop
  endfacet
  facet normal -0.994138 0.108121 0
    outer loop
      vertex 7.25 0 -0.44
      vertex 7.1974 -0.483683 -1.75
      vertex 7.1974 -0.483683 -0.44
    endloop
  endfacet
  facet normal -0.561188 -0.827688 0
    outer loop
      vertex 6.05392 1.9879 -1.75
      vertex 6.45662 1.71486 -0.44
      vertex 6.05392 1.9879 -0.44
    endloop
  endfacet
  facet normal -0.561188 -0.827688 -0
    outer loop
      vertex 6.45662 1.71486 -0.44
      vertex 6.05392 1.9879 -1.75
      vertex 6.45662 1.71486 -1.75
    endloop
  endfacet
  facet normal 0.054139 -0.998533 0
    outer loop
      vertex 4.63599 2.22036 -1.75
      vertex 5.12181 2.2467 -0.44
      vertex 4.63599 2.22036 -0.44
    endloop
  endfacet
  facet normal 0.054139 -0.998533 0
    outer loop
      vertex 5.12181 2.2467 -0.44
      vertex 4.63599 2.22036 -1.75
      vertex 5.12181 2.2467 -1.75
    endloop
  endfacet
  facet normal -0.370138 -0.928977 0
    outer loop
      vertex 5.60194 2.16799 -1.75
      vertex 6.05392 1.9879 -0.44
      vertex 5.60194 2.16799 -0.44
    endloop
  endfacet
  facet normal -0.370138 -0.928977 -0
    outer loop
      vertex 6.05392 1.9879 -0.44
      vertex 5.60194 2.16799 -1.75
      vertex 6.05392 1.9879 -1.75
    endloop
  endfacet
  facet normal 1 -0 0
    outer loop
      vertex 2.76319 -0.243267 -0.44
      vertex 2.76319 0.243267 -1.75
      vertex 2.76319 0.243267 -0.44
    endloop
  endfacet
  facet normal 1 0 0
    outer loop
      vertex 2.76319 0.243267 -1.75
      vertex 2.76319 -0.243267 -0.44
      vertex 2.76319 -0.243267 -1.75
    endloop
  endfacet
  facet normal 0.796093 -0.605174 0
    outer loop
      vertex 3.07207 1.16 -0.44
      vertex 3.36651 1.54732 -1.75
      vertex 3.36651 1.54732 -0.44
    endloop
  endfacet
  facet normal 0.796093 -0.605174 0
    outer loop
      vertex 3.36651 1.54732 -1.75
      vertex 3.07207 1.16 -0.44
      vertex 3.07207 1.16 -1.75
    endloop
  endfacet
  facet normal 0.468409 -0.883512 0
    outer loop
      vertex 3.73733 1.8623 -1.75
      vertex 4.16719 2.0902 -0.44
      vertex 3.73733 1.8623 -0.44
    endloop
  endfacet
  facet normal 0.468409 -0.883512 0
    outer loop
      vertex 4.16719 2.0902 -0.44
      vertex 3.73733 1.8623 -1.75
      vertex 4.16719 2.0902 -1.75
    endloop
  endfacet
  facet normal 0.647386 -0.762162 0
    outer loop
      vertex 3.36651 1.54732 -1.75
      vertex 3.73733 1.8623 -0.44
      vertex 3.36651 1.54732 -0.44
    endloop
  endfacet
  facet normal 0.647386 -0.762162 0
    outer loop
      vertex 3.73733 1.8623 -0.44
      vertex 3.36651 1.54732 -1.75
      vertex 3.73733 1.8623 -1.75
    endloop
  endfacet
  facet normal -0.994138 -0.108121 0
    outer loop
      vertex 7.25 0 -1.75
      vertex 7.1974 0.483683 -0.44
      vertex 7.1974 0.483683 -1.75
    endloop
  endfacet
  facet normal -0.994138 -0.108121 0
    outer loop
      vertex 7.1974 0.483683 -0.44
      vertex 7.25 0 -1.75
      vertex 7.25 0 -0.44
    endloop
  endfacet
  facet normal -0.370138 0.928977 0
    outer loop
      vertex 6.05392 -1.9879 -1.75
      vertex 5.60194 -2.16799 -0.44
      vertex 6.05392 -1.9879 -0.44
    endloop
  endfacet
  facet normal -0.370138 0.928977 0
    outer loop
      vertex 5.60194 -2.16799 -0.44
      vertex 6.05392 -1.9879 -1.75
      vertex 5.60194 -2.16799 -1.75
    endloop
  endfacet
  facet normal -0.561188 0.827688 0
    outer loop
      vertex 6.45662 -1.71486 -1.75
      vertex 6.05392 -1.9879 -0.44
      vertex 6.45662 -1.71486 -0.44
    endloop
  endfacet
  facet normal -0.561188 0.827688 0
    outer loop
      vertex 6.05392 -1.9879 -0.44
      vertex 6.45662 -1.71486 -1.75
      vertex 6.05392 -1.9879 -1.75
    endloop
  endfacet
  facet normal -0.947654 -0.3193 0
    outer loop
      vertex 7.1974 0.483683 -1.75
      vertex 7.04204 0.94475 -0.44
      vertex 7.04204 0.94475 -1.75
    endloop
  endfacet
  facet normal -0.947654 -0.3193 0
    outer loop
      vertex 7.04204 0.94475 -0.44
      vertex 7.1974 0.483683 -1.75
      vertex 7.1974 0.483683 -0.44
    endloop
  endfacet
  facet normal -0.856857 0.515554 0
    outer loop
      vertex 6.79121 -1.36164 -1.75
      vertex 7.04204 -0.94475 -0.44
      vertex 7.04204 -0.94475 -1.75
    endloop
  endfacet
  facet normal -0.856857 0.515554 0
    outer loop
      vertex 7.04204 -0.94475 -0.44
      vertex 6.79121 -1.36164 -1.75
      vertex 6.79121 -1.36164 -0.44
    endloop
  endfacet
  facet normal 0.054139 0.998533 -0
    outer loop
      vertex 5.12181 -2.2467 -1.75
      vertex 4.63599 -2.22036 -0.44
      vertex 5.12181 -2.2467 -0.44
    endloop
  endfacet
  facet normal 0.054139 0.998533 0
    outer loop
      vertex 4.63599 -2.22036 -0.44
      vertex 5.12181 -2.2467 -1.75
      vertex 4.63599 -2.22036 -1.75
    endloop
  endfacet
  facet normal -0.947654 0.3193 0
    outer loop
      vertex 7.04204 -0.94475 -1.75
      vertex 7.1974 -0.483683 -0.44
      vertex 7.1974 -0.483683 -1.75
    endloop
  endfacet
  facet normal -0.947654 0.3193 0
    outer loop
      vertex 7.1974 -0.483683 -0.44
      vertex 7.04204 -0.94475 -1.75
      vertex 7.04204 -0.94475 -0.44
    endloop
  endfacet
  facet normal -0.161781 0.986827 0
    outer loop
      vertex 5.60194 -2.16799 -1.75
      vertex 5.12181 -2.2467 -0.44
      vertex 5.60194 -2.16799 -0.44
    endloop
  endfacet
  facet normal -0.161781 0.986827 0
    outer loop
      vertex 5.12181 -2.2467 -0.44
      vertex 5.60194 -2.16799 -1.75
      vertex 5.12181 -2.2467 -1.75
    endloop
  endfacet
  facet normal 0.468409 0.883512 -0
    outer loop
      vertex 4.16719 -2.0902 -1.75
      vertex 3.73733 -1.8623 -0.44
      vertex 4.16719 -2.0902 -0.44
    endloop
  endfacet
  facet normal 0.468409 0.883512 0
    outer loop
      vertex 3.73733 -1.8623 -0.44
      vertex 4.16719 -2.0902 -1.75
      vertex 3.73733 -1.8623 -1.75
    endloop
  endfacet
  facet normal 0.796093 0.605174 0
    outer loop
      vertex 3.36651 -1.54732 -0.44
      vertex 3.07207 -1.16 -1.75
      vertex 3.07207 -1.16 -0.44
    endloop
  endfacet
  facet normal 0.796093 0.605174 0
    outer loop
      vertex 3.07207 -1.16 -1.75
      vertex 3.36651 -1.54732 -0.44
      vertex 3.36651 -1.54732 -1.75
    endloop
  endfacet
  facet normal 0.907575 0.419889 0
    outer loop
      vertex 3.07207 -1.16 -0.44
      vertex 2.86778 -0.718428 -1.75
      vertex 2.86778 -0.718428 -0.44
    endloop
  endfacet
  facet normal 0.907575 0.419889 0
    outer loop
      vertex 2.86778 -0.718428 -1.75
      vertex 3.07207 -1.16 -0.44
      vertex 3.07207 -1.16 -1.75
    endloop
  endfacet
  facet normal 0.647386 0.762162 -0
    outer loop
      vertex 3.73733 -1.8623 -1.75
      vertex 3.36651 -1.54732 -0.44
      vertex 3.73733 -1.8623 -0.44
    endloop
  endfacet
  facet normal 0.647386 0.762162 0
    outer loop
      vertex 3.36651 -1.54732 -0.44
      vertex 3.73733 -1.8623 -1.75
      vertex 3.36651 -1.54732 -1.75
    endloop
  endfacet
  facet normal -0.725994 0.687701 0
    outer loop
      vertex 6.45662 -1.71486 -1.75
      vertex 6.79121 -1.36164 -0.44
      vertex 6.79121 -1.36164 -1.75
    endloop
  endfacet
  facet normal -0.725994 0.687701 0
    outer loop
      vertex 6.79121 -1.36164 -0.44
      vertex 6.45662 -1.71486 -1.75
      vertex 6.45662 -1.71486 -0.44
    endloop
  endfacet
  facet normal 0.267527 0.96355 -0
    outer loop
      vertex 4.63599 -2.22036 -1.75
      vertex 4.16719 -2.0902 -0.44
      vertex 4.63599 -2.22036 -0.44
    endloop
  endfacet
  facet normal 0.267527 0.96355 0
    outer loop
      vertex 4.16719 -2.0902 -0.44
      vertex 4.63599 -2.22036 -1.75
      vertex 4.16719 -2.0902 -1.75
    endloop
  endfacet
  facet normal -0.866025 -0.5 0
    outer loop
      vertex -1.65137 0 -0.44
      vertex -3.32568 2.9 1.75
      vertex -3.32568 2.9 -0.44
    endloop
  endfacet
  facet normal -0.866025 -0.5 0
    outer loop
      vertex -3.32568 2.9 1.75
      vertex -1.65137 0 -0.44
      vertex -1.65137 0 1.75
    endloop
  endfacet
  facet normal 0.866025 -0.5 0
    outer loop
      vertex -8.34863 0 1.75
      vertex -6.67432 2.9 -0.44
      vertex -6.67432 2.9 1.75
    endloop
  endfacet
  facet normal 0.866025 -0.5 0
    outer loop
      vertex -6.67432 2.9 -0.44
      vertex -8.34863 0 1.75
      vertex -8.34863 0 -0.44
    endloop
  endfacet
  facet normal 0 -1 0
    outer loop
      vertex -6.67432 2.9 -0.44
      vertex -3.32568 2.9 1.75
      vertex -6.67432 2.9 1.75
    endloop
  endfacet
  facet normal 0 -1 -0
    outer loop
      vertex -3.32568 2.9 1.75
      vertex -6.67432 2.9 -0.44
      vertex -3.32568 2.9 -0.44
    endloop
  endfacet
  facet normal -0.866025 0.5 0
    outer loop
      vertex -3.32568 -2.9 -0.44
      vertex -1.65137 0 1.75
      vertex -1.65137 0 -0.44
    endloop
  endfacet
  facet normal -0.866025 0.5 0
    outer loop
      vertex -1.65137 0 1.75
      vertex -3.32568 -2.9 -0.44
      vertex -3.32568 -2.9 1.75
    endloop
  endfacet
  facet normal 0 0 1
    outer loop
      vertex -1.65137 0 -0.44
      vertex -2.8026 0.483683 -0.44
      vertex -2.75 0 -0.44
    endloop
  endfacet
  facet normal 0 0 1
    outer loop
      vertex -1.65137 0 -0.44
      vertex -2.95796 0.94475 -0.44
      vertex -2.8026 0.483683 -0.44
    endloop
  endfacet
  facet normal 0 0 1
    outer loop
      vertex -3.32568 2.9 -0.44
      vertex -2.95796 0.94475 -0.44
      vertex -1.65137 0 -0.44
    endloop
  endfacet
  facet normal 0 0 1
    outer loop
      vertex -2.95796 0.94475 -0.44
      vertex -3.32568 2.9 -0.44
      vertex -3.20879 1.36164 -0.44
    endloop
  endfacet
  facet normal 0 0 1
    outer loop
      vertex -3.32568 2.9 -0.44
      vertex -3.54338 1.71486 -0.44
      vertex -3.20879 1.36164 -0.44
    endloop
  endfacet
  facet normal 0 0 1
    outer loop
      vertex -3.32568 2.9 -0.44
      vertex -3.94608 1.9879 -0.44
      vertex -3.54338 1.71486 -0.44
    endloop
  endfacet
  facet normal 0 0 1
    outer loop
      vertex -3.32568 2.9 -0.44
      vertex -4.39806 2.16799 -0.44
      vertex -3.94608 1.9879 -0.44
    endloop
  endfacet
  facet normal 0 0 1
    outer loop
      vertex -3.32568 2.9 -0.44
      vertex -4.87819 2.2467 -0.44
      vertex -4.39806 2.16799 -0.44
    endloop
  endfacet
  facet normal -0 0 1
    outer loop
      vertex -6.67432 2.9 -0.44
      vertex -4.87819 2.2467 -0.44
      vertex -3.32568 2.9 -0.44
    endloop
  endfacet
  facet normal 0 0 1
    outer loop
      vertex -4.87819 2.2467 -0.44
      vertex -6.67432 2.9 -0.44
      vertex -5.36401 2.22036 -0.44
    endloop
  endfacet
  facet normal 0 0 1
    outer loop
      vertex -5.36401 2.22036 -0.44
      vertex -6.67432 2.9 -0.44
      vertex -5.83281 2.0902 -0.44
    endloop
  endfacet
  facet normal 0 0 1
    outer loop
      vertex -6.67432 2.9 -0.44
      vertex -6.26267 1.8623 -0.44
      vertex -5.83281 2.0902 -0.44
    endloop
  endfacet
  facet normal 0 0 1
    outer loop
      vertex -6.67432 2.9 -0.44
      vertex -6.63349 1.54732 -0.44
      vertex -6.26267 1.8623 -0.44
    endloop
  endfacet
  facet normal 0 0 1
    outer loop
      vertex -6.67432 2.9 -0.44
      vertex -6.92793 1.16 -0.44
      vertex -6.63349 1.54732 -0.44
    endloop
  endfacet
  facet normal 0 0 1
    outer loop
      vertex -8.34863 0 -0.44
      vertex -6.92793 1.16 -0.44
      vertex -6.67432 2.9 -0.44
    endloop
  endfacet
  facet normal 0 0 1
    outer loop
      vertex -6.92793 1.16 -0.44
      vertex -8.34863 0 -0.44
      vertex -7.13222 0.718428 -0.44
    endloop
  endfacet
  facet normal 0 0 1
    outer loop
      vertex -7.23681 0.243267 -0.44
      vertex -8.34863 0 -0.44
      vertex -7.23681 -0.243267 -0.44
    endloop
  endfacet
  facet normal 0 0 1
    outer loop
      vertex -7.13222 0.718428 -0.44
      vertex -8.34863 0 -0.44
      vertex -7.23681 0.243267 -0.44
    endloop
  endfacet
  facet normal 0 0 1
    outer loop
      vertex -2.8026 -0.483683 -0.44
      vertex -1.65137 0 -0.44
      vertex -2.75 0 -0.44
    endloop
  endfacet
  facet normal 0 0 1
    outer loop
      vertex -2.95796 -0.94475 -0.44
      vertex -1.65137 0 -0.44
      vertex -2.8026 -0.483683 -0.44
    endloop
  endfacet
  facet normal 0 0 1
    outer loop
      vertex -3.32568 -2.9 -0.44
      vertex -2.95796 -0.94475 -0.44
      vertex -3.20879 -1.36164 -0.44
    endloop
  endfacet
  facet normal -0 0 1
    outer loop
      vertex -2.95796 -0.94475 -0.44
      vertex -3.32568 -2.9 -0.44
      vertex -1.65137 0 -0.44
    endloop
  endfacet
  facet normal -0 0 1
    outer loop
      vertex -3.54338 -1.71486 -0.44
      vertex -3.32568 -2.9 -0.44
      vertex -3.20879 -1.36164 -0.44
    endloop
  endfacet
  facet normal -0 0 1
    outer loop
      vertex -3.94608 -1.9879 -0.44
      vertex -3.32568 -2.9 -0.44
      vertex -3.54338 -1.71486 -0.44
    endloop
  endfacet
  facet normal -0 0 1
    outer loop
      vertex -4.39806 -2.16799 -0.44
      vertex -3.32568 -2.9 -0.44
      vertex -3.94608 -1.9879 -0.44
    endloop
  endfacet
  facet normal -0 0 1
    outer loop
      vertex -4.87819 -2.2467 -0.44
      vertex -3.32568 -2.9 -0.44
      vertex -4.39806 -2.16799 -0.44
    endloop
  endfacet
  facet normal 0 0 1
    outer loop
      vertex -6.67432 -2.9 -0.44
      vertex -4.87819 -2.2467 -0.44
      vertex -5.36401 -2.22036 -0.44
    endloop
  endfacet
  facet normal 0 0 1
    outer loop
      vertex -6.67432 -2.9 -0.44
      vertex -5.36401 -2.22036 -0.44
      vertex -5.83281 -2.0902 -0.44
    endloop
  endfacet
  facet normal 0 0 1
    outer loop
      vertex -4.87819 -2.2467 -0.44
      vertex -6.67432 -2.9 -0.44
      vertex -3.32568 -2.9 -0.44
    endloop
  endfacet
  facet normal 0 0 1
    outer loop
      vertex -6.26267 -1.8623 -0.44
      vertex -6.67432 -2.9 -0.44
      vertex -5.83281 -2.0902 -0.44
    endloop
  endfacet
  facet normal 0 0 1
    outer loop
      vertex -6.63349 -1.54732 -0.44
      vertex -6.67432 -2.9 -0.44
      vertex -6.26267 -1.8623 -0.44
    endloop
  endfacet
  facet normal 0 0 1
    outer loop
      vertex -6.92793 -1.16 -0.44
      vertex -6.67432 -2.9 -0.44
      vertex -6.63349 -1.54732 -0.44
    endloop
  endfacet
  facet normal 0 0 1
    outer loop
      vertex -8.34863 0 -0.44
      vertex -6.92793 -1.16 -0.44
      vertex -7.13222 -0.718428 -0.44
    endloop
  endfacet
  facet normal 0 0 1
    outer loop
      vertex -8.34863 0 -0.44
      vertex -7.13222 -0.718428 -0.44
      vertex -7.23681 -0.243267 -0.44
    endloop
  endfacet
  facet normal 0 0 1
    outer loop
      vertex -6.92793 -1.16 -0.44
      vertex -8.34863 0 -0.44
      vertex -6.67432 -2.9 -0.44
    endloop
  endfacet
  facet normal 0 1 -0
    outer loop
      vertex -3.32568 -2.9 -0.44
      vertex -6.67432 -2.9 1.75
      vertex -3.32568 -2.9 1.75
    endloop
  endfacet
  facet normal 0 1 0
    outer loop
      vertex -6.67432 -2.9 1.75
      vertex -3.32568 -2.9 -0.44
      vertex -6.67432 -2.9 -0.44
    endloop
  endfacet
  facet normal 0.866025 0.5 0
    outer loop
      vertex -6.67432 -2.9 1.75
      vertex -8.34863 0 -0.44
      vertex -8.34863 0 1.75
    endloop
  endfacet
  facet normal 0.866025 0.5 0
    outer loop
      vertex -8.34863 0 -0.44
      vertex -6.67432 -2.9 1.75
      vertex -6.67432 -2.9 -0.44
    endloop
  endfacet
  facet normal -0.856857 -0.515554 0
    outer loop
      vertex -2.95796 0.94475 -1.75
      vertex -3.20879 1.36164 -0.44
      vertex -3.20879 1.36164 -1.75
    endloop
  endfacet
  facet normal -0.856857 -0.515554 0
    outer loop
      vertex -3.20879 1.36164 -0.44
      vertex -2.95796 0.94475 -1.75
      vertex -2.95796 0.94475 -0.44
    endloop
  endfacet
  facet normal 0.976621 0.21497 0
    outer loop
      vertex -7.13222 -0.718428 -0.44
      vertex -7.23681 -0.243267 -1.75
      vertex -7.23681 -0.243267 -0.44
    endloop
  endfacet
  facet normal 0.976621 0.21497 0
    outer loop
      vertex -7.23681 -0.243267 -1.75
      vertex -7.13222 -0.718428 -0.44
      vertex -7.13222 -0.718428 -1.75
    endloop
  endfacet
  facet normal 0.976621 -0.21497 0
    outer loop
      vertex -7.23681 0.243267 -0.44
      vertex -7.13222 0.718428 -1.75
      vertex -7.13222 0.718428 -0.44
    endloop
  endfacet
  facet normal 0.976621 -0.21497 0
    outer loop
      vertex -7.13222 0.718428 -1.75
      vertex -7.23681 0.243267 -0.44
      vertex -7.23681 0.243267 -1.75
    endloop
  endfacet
  facet normal -0.725994 -0.687701 0
    outer loop
      vertex -3.20879 1.36164 -1.75
      vertex -3.54338 1.71486 -0.44
      vertex -3.54338 1.71486 -1.75
    endloop
  endfacet
  facet normal -0.725994 -0.687701 0
    outer loop
      vertex -3.54338 1.71486 -0.44
      vertex -3.20879 1.36164 -1.75
      vertex -3.20879 1.36164 -0.44
    endloop
  endfacet
  facet normal -0.161781 -0.986827 0
    outer loop
      vertex -4.87819 2.2467 -1.75
      vertex -4.39806 2.16799 -0.44
      vertex -4.87819 2.2467 -0.44
    endloop
  endfacet
  facet normal -0.161781 -0.986827 -0
    outer loop
      vertex -4.39806 2.16799 -0.44
      vertex -4.87819 2.2467 -1.75
      vertex -4.39806 2.16799 -1.75
    endloop
  endfacet
  facet normal 0.267527 -0.96355 0
    outer loop
      vertex -5.83281 2.0902 -1.75
      vertex -5.36401 2.22036 -0.44
      vertex -5.83281 2.0902 -0.44
    endloop
  endfacet
  facet normal 0.267527 -0.96355 0
    outer loop
      vertex -5.36401 2.22036 -0.44
      vertex -5.83281 2.0902 -1.75
      vertex -5.36401 2.22036 -1.75
    endloop
  endfacet
  facet normal 0.907575 -0.419889 0
    outer loop
      vertex -7.13222 0.718428 -0.44
      vertex -6.92793 1.16 -1.75
      vertex -6.92793 1.16 -0.44
    endloop
  endfacet
  facet normal 0.907575 -0.419889 0
    outer loop
      vertex -6.92793 1.16 -1.75
      vertex -7.13222 0.718428 -0.44
      vertex -7.13222 0.718428 -1.75
    endloop
  endfacet
  facet normal -0.994138 0.108121 0
    outer loop
      vertex -2.8026 -0.483683 -1.75
      vertex -2.75 0 -0.44
      vertex -2.75 0 -1.75
    endloop
  endfacet
  facet normal -0.994138 0.108121 0
    outer loop
      vertex -2.75 0 -0.44
      vertex -2.8026 -0.483683 -1.75
      vertex -2.8026 -0.483683 -0.44
    endloop
  endfacet
  facet normal -0.561188 -0.827688 0
    outer loop
      vertex -3.94608 1.9879 -1.75
      vertex -3.54338 1.71486 -0.44
      vertex -3.94608 1.9879 -0.44
    endloop
  endfacet
  facet normal -0.561188 -0.827688 -0
    outer loop
      vertex -3.54338 1.71486 -0.44
      vertex -3.94608 1.9879 -1.75
      vertex -3.54338 1.71486 -1.75
    endloop
  endfacet
  facet normal 0.054139 -0.998533 0
    outer loop
      vertex -5.36401 2.22036 -1.75
      vertex -4.87819 2.2467 -0.44
      vertex -5.36401 2.22036 -0.44
    endloop
  endfacet
  facet normal 0.054139 -0.998533 0
    outer loop
      vertex -4.87819 2.2467 -0.44
      vertex -5.36401 2.22036 -1.75
      vertex -4.87819 2.2467 -1.75
    endloop
  endfacet
  facet normal -0.370138 -0.928977 0
    outer loop
      vertex -4.39806 2.16799 -1.75
      vertex -3.94608 1.9879 -0.44
      vertex -4.39806 2.16799 -0.44
    endloop
  endfacet
  facet normal -0.370138 -0.928977 -0
    outer loop
      vertex -3.94608 1.9879 -0.44
      vertex -4.39806 2.16799 -1.75
      vertex -3.94608 1.9879 -1.75
    endloop
  endfacet
  facet normal 1 -0 0
    outer loop
      vertex -7.23681 -0.243267 -0.44
      vertex -7.23681 0.243267 -1.75
      vertex -7.23681 0.243267 -0.44
    endloop
  endfacet
  facet normal 1 0 0
    outer loop
      vertex -7.23681 0.243267 -1.75
      vertex -7.23681 -0.243267 -0.44
      vertex -7.23681 -0.243267 -1.75
    endloop
  endfacet
  facet normal 0.796093 -0.605174 0
    outer loop
      vertex -6.92793 1.16 -0.44
      vertex -6.63349 1.54732 -1.75
      vertex -6.63349 1.54732 -0.44
    endloop
  endfacet
  facet normal 0.796093 -0.605174 0
    outer loop
      vertex -6.63349 1.54732 -1.75
      vertex -6.92793 1.16 -0.44
      vertex -6.92793 1.16 -1.75
    endloop
  endfacet
  facet normal 0.468409 -0.883512 0
    outer loop
      vertex -6.26267 1.8623 -1.75
      vertex -5.83281 2.0902 -0.44
      vertex -6.26267 1.8623 -0.44
    endloop
  endfacet
  facet normal 0.468409 -0.883512 0
    outer loop
      vertex -5.83281 2.0902 -0.44
      vertex -6.26267 1.8623 -1.75
      vertex -5.83281 2.0902 -1.75
    endloop
  endfacet
  facet normal 0.647386 -0.762162 0
    outer loop
      vertex -6.63349 1.54732 -1.75
      vertex -6.26267 1.8623 -0.44
      vertex -6.63349 1.54732 -0.44
    endloop
  endfacet
  facet normal 0.647386 -0.762162 0
    outer loop
      vertex -6.26267 1.8623 -0.44
      vertex -6.63349 1.54732 -1.75
      vertex -6.26267 1.8623 -1.75
    endloop
  endfacet
  facet normal -0.994138 -0.108121 0
    outer loop
      vertex -2.75 0 -1.75
      vertex -2.8026 0.483683 -0.44
      vertex -2.8026 0.483683 -1.75
    endloop
  endfacet
  facet normal -0.994138 -0.108121 0
    outer loop
      vertex -2.8026 0.483683 -0.44
      vertex -2.75 0 -1.75
      vertex -2.75 0 -0.44
    endloop
  endfacet
  facet normal -0.370138 0.928977 0
    outer loop
      vertex -3.94608 -1.9879 -1.75
      vertex -4.39806 -2.16799 -0.44
      vertex -3.94608 -1.9879 -0.44
    endloop
  endfacet
  facet normal -0.370138 0.928977 0
    outer loop
      vertex -4.39806 -2.16799 -0.44
      vertex -3.94608 -1.9879 -1.75
      vertex -4.39806 -2.16799 -1.75
    endloop
  endfacet
  facet normal -0.561188 0.827688 0
    outer loop
      vertex -3.54338 -1.71486 -1.75
      vertex -3.94608 -1.9879 -0.44
      vertex -3.54338 -1.71486 -0.44
    endloop
  endfacet
  facet normal -0.561188 0.827688 0
    outer loop
      vertex -3.94608 -1.9879 -0.44
      vertex -3.54338 -1.71486 -1.75
      vertex -3.94608 -1.9879 -1.75
    endloop
  endfacet
  facet normal -0.947654 -0.3193 0
    outer loop
      vertex -2.8026 0.483683 -1.75
      vertex -2.95796 0.94475 -0.44
      vertex -2.95796 0.94475 -1.75
    endloop
  endfacet
  facet normal -0.947654 -0.3193 0
    outer loop
      vertex -2.95796 0.94475 -0.44
      vertex -2.8026 0.483683 -1.75
      vertex -2.8026 0.483683 -0.44
    endloop
  endfacet
  facet normal -0.856857 0.515554 0
    outer loop
      vertex -3.20879 -1.36164 -1.75
      vertex -2.95796 -0.94475 -0.44
      vertex -2.95796 -0.94475 -1.75
    endloop
  endfacet
  facet normal -0.856857 0.515554 0
    outer loop
      vertex -2.95796 -0.94475 -0.44
      vertex -3.20879 -1.36164 -1.75
      vertex -3.20879 -1.36164 -0.44
    endloop
  endfacet
  facet normal 0.054139 0.998533 -0
    outer loop
      vertex -4.87819 -2.2467 -1.75
      vertex -5.36401 -2.22036 -0.44
      vertex -4.87819 -2.2467 -0.44
    endloop
  endfacet
  facet normal 0.054139 0.998533 0
    outer loop
      vertex -5.36401 -2.22036 -0.44
      vertex -4.87819 -2.2467 -1.75
      vertex -5.36401 -2.22036 -1.75
    endloop
  endfacet
  facet normal -0.947654 0.3193 0
    outer loop
      vertex -2.95796 -0.94475 -1.75
      vertex -2.8026 -0.483683 -0.44
      vertex -2.8026 -0.483683 -1.75
    endloop
  endfacet
  facet normal -0.947654 0.3193 0
    outer loop
      vertex -2.8026 -0.483683 -0.44
      vertex -2.95796 -0.94475 -1.75
      vertex -2.95796 -0.94475 -0.44
    endloop
  endfacet
  facet normal -0.161781 0.986827 0
    outer loop
      vertex -4.39806 -2.16799 -1.75
      vertex -4.87819 -2.2467 -0.44
      vertex -4.39806 -2.16799 -0.44
    endloop
  endfacet
  facet normal -0.161781 0.986827 0
    outer loop
      vertex -4.87819 -2.2467 -0.44
      vertex -4.39806 -2.16799 -1.75
      vertex -4.87819 -2.2467 -1.75
    endloop
  endfacet
  facet normal 0.468409 0.883512 -0
    outer loop
      vertex -5.83281 -2.0902 -1.75
      vertex -6.26267 -1.8623 -0.44
      vertex -5.83281 -2.0902 -0.44
    endloop
  endfacet
  facet normal 0.468409 0.883512 0
    outer loop
      vertex -6.26267 -1.8623 -0.44
      vertex -5.83281 -2.0902 -1.75
      vertex -6.26267 -1.8623 -1.75
    endloop
  endfacet
  facet normal 0.796093 0.605174 0
    outer loop
      vertex -6.63349 -1.54732 -0.44
      vertex -6.92793 -1.16 -1.75
      vertex -6.92793 -1.16 -0.44
    endloop
  endfacet
  facet normal 0.796093 0.605174 0
    outer loop
      vertex -6.92793 -1.16 -1.75
      vertex -6.63349 -1.54732 -0.44
      vertex -6.63349 -1.54732 -1.75
    endloop
  endfacet
  facet normal 0.907575 0.419889 0
    outer loop
      vertex -6.92793 -1.16 -0.44
      vertex -7.13222 -0.718428 -1.75
      vertex -7.13222 -0.718428 -0.44
    endloop
  endfacet
  facet normal 0.907575 0.419889 0
    outer loop
      vertex -7.13222 -0.718428 -1.75
      vertex -6.92793 -1.16 -0.44
      vertex -6.92793 -1.16 -1.75
    endloop
  endfacet
  facet normal 0.647386 0.762162 -0
    outer loop
      vertex -6.26267 -1.8623 -1.75
      vertex -6.63349 -1.54732 -0.44
      vertex -6.26267 -1.8623 -0.44
    endloop
  endfacet
  facet normal 0.647386 0.762162 0
    outer loop
      vertex -6.63349 -1.54732 -0.44
      vertex -6.26267 -1.8623 -1.75
      vertex -6.63349 -1.54732 -1.75
    endloop
  endfacet
  facet normal -0.725994 0.687701 0
    outer loop
      vertex -3.54338 -1.71486 -1.75
      vertex -3.20879 -1.36164 -0.44
      vertex -3.20879 -1.36164 -1.75
    endloop
  endfacet
  facet normal -0.725994 0.687701 0
    outer loop
      vertex -3.20879 -1.36164 -0.44
      vertex -3.54338 -1.71486 -1.75
      vertex -3.54338 -1.71486 -0.44
    endloop
  endfacet
  facet normal 0.267527 0.96355 -0
    outer loop
      vertex -5.36401 -2.22036 -1.75
      vertex -5.83281 -2.0902 -0.44
      vertex -5.36401 -2.22036 -0.44
    endloop
  endfacet
  facet normal 0.267527 0.96355 0
    outer loop
      vertex -5.83281 -2.0902 -0.44
      vertex -5.36401 -2.22036 -1.75
      vertex -5.83281 -2.0902 -1.75
    endloop
  endfacet
  facet normal -1 0 0
    outer loop
      vertex -10 -3.5 -1.75
      vertex -10 3.5 1.75
      vertex -10 3.5 -1.75
    endloop
  endfacet
  facet normal -1 -0 0
    outer loop
      vertex -10 3.5 1.75
      vertex -10 -3.5 -1.75
      vertex -10 -3.5 1.75
    endloop
  endfacet
  facet normal 0 0 1
    outer loop
      vertex 10 3.5 1.75
      vertex 8.34863 0 1.75
      vertex 10 -3.5 1.75
    endloop
  endfacet
  facet normal 0 0 1
    outer loop
      vertex 10 3.5 1.75
      vertex 6.67432 2.9 1.75
      vertex 8.34863 0 1.75
    endloop
  endfacet
  facet normal 0 0 1
    outer loop
      vertex 10 3.5 1.75
      vertex 3.32568 2.9 1.75
      vertex 6.67432 2.9 1.75
    endloop
  endfacet
  facet normal 0 0 1
    outer loop
      vertex 3.32568 2.9 1.75
      vertex -1.65137 0 1.75
      vertex 1.65137 0 1.75
    endloop
  endfacet
  facet normal 0 0 1
    outer loop
      vertex 3.32568 2.9 1.75
      vertex -3.32568 2.9 1.75
      vertex -1.65137 0 1.75
    endloop
  endfacet
  facet normal 0 0 1
    outer loop
      vertex 10 3.5 1.75
      vertex -3.32568 2.9 1.75
      vertex 3.32568 2.9 1.75
    endloop
  endfacet
  facet normal -0 0 1
    outer loop
      vertex -10 3.5 1.75
      vertex -3.32568 2.9 1.75
      vertex 10 3.5 1.75
    endloop
  endfacet
  facet normal 0 0 1
    outer loop
      vertex -6.67432 2.9 1.75
      vertex -10 3.5 1.75
      vertex -8.34863 0 1.75
    endloop
  endfacet
  facet normal 0 0 1
    outer loop
      vertex -3.32568 2.9 1.75
      vertex -10 3.5 1.75
      vertex -6.67432 2.9 1.75
    endloop
  endfacet
  facet normal -0 0 1
    outer loop
      vertex 6.67432 -2.9 1.75
      vertex 10 -3.5 1.75
      vertex 8.34863 0 1.75
    endloop
  endfacet
  facet normal -0 0 1
    outer loop
      vertex 3.32568 -2.9 1.75
      vertex 10 -3.5 1.75
      vertex 6.67432 -2.9 1.75
    endloop
  endfacet
  facet normal -0 0 1
    outer loop
      vertex -1.65137 0 1.75
      vertex 3.32568 -2.9 1.75
      vertex 1.65137 0 1.75
    endloop
  endfacet
  facet normal 0 0 1
    outer loop
      vertex -3.32568 -2.9 1.75
      vertex 3.32568 -2.9 1.75
      vertex -1.65137 0 1.75
    endloop
  endfacet
  facet normal -0 0 1
    outer loop
      vertex -3.32568 -2.9 1.75
      vertex 10 -3.5 1.75
      vertex 3.32568 -2.9 1.75
    endloop
  endfacet
  facet normal 0 0 1
    outer loop
      vertex -10 -3.5 1.75
      vertex -3.32568 -2.9 1.75
      vertex -6.67432 -2.9 1.75
    endloop
  endfacet
  facet normal 0 0 1
    outer loop
      vertex -3.32568 -2.9 1.75
      vertex -10 -3.5 1.75
      vertex 10 -3.5 1.75
    endloop
  endfacet
  facet normal 0 0 1
    outer loop
      vertex -8.34863 0 1.75
      vertex -10 -3.5 1.75
      vertex -6.67432 -2.9 1.75
    endloop
  endfacet
  facet normal 0 0 1
    outer loop
      vertex -10 -3.5 1.75
      vertex -8.34863 0 1.75
      vertex -10 3.5 1.75
    endloop
  endfacet
  facet normal 1 -0 0
    outer loop
      vertex 10 -3.5 1.75
      vertex 10 3.5 -1.75
      vertex 10 3.5 1.75
    endloop
  endfacet
  facet normal 1 0 0
    outer loop
      vertex 10 3.5 -1.75
      vertex 10 -3.5 1.75
      vertex 10 -3.5 -1.75
    endloop
  endfacet
  facet normal 0 1 -0
    outer loop
      vertex 10 3.5 -1.75
      vertex -10 3.5 1.75
      vertex 10 3.5 1.75
    endloop
  endfacet
  facet normal 0 1 0
    outer loop
      vertex -10 3.5 1.75
      vertex 10 3.5 -1.75
      vertex -10 3.5 -1.75
    endloop
  endfacet
  facet normal 0 0 -1
    outer loop
      vertex 10 -3.5 -1.75
      vertex 7.25 0 -1.75
      vertex 10 3.5 -1.75
    endloop
  endfacet
  facet normal 0 0 -1
    outer loop
      vertex 10 -3.5 -1.75
      vertex 7.1974 -0.483683 -1.75
      vertex 7.25 0 -1.75
    endloop
  endfacet
  facet normal 0 0 -1
    outer loop
      vertex 10 -3.5 -1.75
      vertex 7.04204 -0.94475 -1.75
      vertex 7.1974 -0.483683 -1.75
    endloop
  endfacet
  facet normal 0 0 -1
    outer loop
      vertex 10 -3.5 -1.75
      vertex 6.79121 -1.36164 -1.75
      vertex 7.04204 -0.94475 -1.75
    endloop
  endfacet
  facet normal 0 0 -1
    outer loop
      vertex 10 -3.5 -1.75
      vertex 6.45662 -1.71486 -1.75
      vertex 6.79121 -1.36164 -1.75
    endloop
  endfacet
  facet normal 0 0 -1
    outer loop
      vertex 10 -3.5 -1.75
      vertex 6.05392 -1.9879 -1.75
      vertex 6.45662 -1.71486 -1.75
    endloop
  endfacet
  facet normal 0 0 -1
    outer loop
      vertex 10 -3.5 -1.75
      vertex 5.60194 -2.16799 -1.75
      vertex 6.05392 -1.9879 -1.75
    endloop
  endfacet
  facet normal 0 0 -1
    outer loop
      vertex 10 -3.5 -1.75
      vertex 5.12181 -2.2467 -1.75
      vertex 5.60194 -2.16799 -1.75
    endloop
  endfacet
  facet normal 0 0 -1
    outer loop
      vertex 10 -3.5 -1.75
      vertex 4.63599 -2.22036 -1.75
      vertex 5.12181 -2.2467 -1.75
    endloop
  endfacet
  facet normal 0 0 -1
    outer loop
      vertex 2.76319 -0.243267 -1.75
      vertex -2.75 0 -1.75
      vertex 2.76319 0.243267 -1.75
    endloop
  endfacet
  facet normal 0 0 -1
    outer loop
      vertex -2.8026 -0.483683 -1.75
      vertex 2.76319 -0.243267 -1.75
      vertex 2.86778 -0.718428 -1.75
    endloop
  endfacet
  facet normal 0 0 -1
    outer loop
      vertex -2.95796 -0.94475 -1.75
      vertex 2.86778 -0.718428 -1.75
      vertex 3.07207 -1.16 -1.75
    endloop
  endfacet
  facet normal 0 0 -1
    outer loop
      vertex -3.20879 -1.36164 -1.75
      vertex 3.07207 -1.16 -1.75
      vertex 3.36651 -1.54732 -1.75
    endloop
  endfacet
  facet normal 0 0 -1
    outer loop
      vertex -3.54338 -1.71486 -1.75
      vertex 3.36651 -1.54732 -1.75
      vertex 3.73733 -1.8623 -1.75
    endloop
  endfacet
  facet normal 0 0 -1
    outer loop
      vertex -3.94608 -1.9879 -1.75
      vertex 3.73733 -1.8623 -1.75
      vertex 4.16719 -2.0902 -1.75
    endloop
  endfacet
  facet normal -0 0 -1
    outer loop
      vertex 2.76319 -0.243267 -1.75
      vertex -2.8026 -0.483683 -1.75
      vertex -2.75 0 -1.75
    endloop
  endfacet
  facet normal 0 0 -1
    outer loop
      vertex -4.39806 -2.16799 -1.75
      vertex 4.16719 -2.0902 -1.75
      vertex 4.63599 -2.22036 -1.75
    endloop
  endfacet
  facet normal 0 0 -1
    outer loop
      vertex -4.87819 -2.2467 -1.75
      vertex 4.63599 -2.22036 -1.75
      vertex 10 -3.5 -1.75
    endloop
  endfacet
  facet normal -0 0 -1
    outer loop
      vertex 2.86778 -0.718428 -1.75
      vertex -2.95796 -0.94475 -1.75
      vertex -2.8026 -0.483683 -1.75
    endloop
  endfacet
  facet normal -0 0 -1
    outer loop
      vertex 3.07207 -1.16 -1.75
      vertex -3.20879 -1.36164 -1.75
      vertex -2.95796 -0.94475 -1.75
    endloop
  endfacet
  facet normal -0 0 -1
    outer loop
      vertex 3.36651 -1.54732 -1.75
      vertex -3.54338 -1.71486 -1.75
      vertex -3.20879 -1.36164 -1.75
    endloop
  endfacet
  facet normal -0 0 -1
    outer loop
      vertex 3.73733 -1.8623 -1.75
      vertex -3.94608 -1.9879 -1.75
      vertex -3.54338 -1.71486 -1.75
    endloop
  endfacet
  facet normal -0 0 -1
    outer loop
      vertex 4.16719 -2.0902 -1.75
      vertex -4.39806 -2.16799 -1.75
      vertex -3.94608 -1.9879 -1.75
    endloop
  endfacet
  facet normal -0 0 -1
    outer loop
      vertex 4.63599 -2.22036 -1.75
      vertex -4.87819 -2.2467 -1.75
      vertex -4.39806 -2.16799 -1.75
    endloop
  endfacet
  facet normal 0 0 -1
    outer loop
      vertex -10 -3.5 -1.75
      vertex -4.87819 -2.2467 -1.75
      vertex 10 -3.5 -1.75
    endloop
  endfacet
  facet normal -0 0 -1
    outer loop
      vertex -7.23681 -0.243267 -1.75
      vertex -10 -3.5 -1.75
      vertex -7.23681 0.243267 -1.75
    endloop
  endfacet
  facet normal -0 0 -1
    outer loop
      vertex -7.13222 -0.718428 -1.75
      vertex -10 -3.5 -1.75
      vertex -7.23681 -0.243267 -1.75
    endloop
  endfacet
  facet normal -0 0 -1
    outer loop
      vertex -6.92793 -1.16 -1.75
      vertex -10 -3.5 -1.75
      vertex -7.13222 -0.718428 -1.75
    endloop
  endfacet
  facet normal -0 0 -1
    outer loop
      vertex -6.63349 -1.54732 -1.75
      vertex -10 -3.5 -1.75
      vertex -6.92793 -1.16 -1.75
    endloop
  endfacet
  facet normal -0 0 -1
    outer loop
      vertex -6.26267 -1.8623 -1.75
      vertex -10 -3.5 -1.75
      vertex -6.63349 -1.54732 -1.75
    endloop
  endfacet
  facet normal -0 0 -1
    outer loop
      vertex -5.83281 -2.0902 -1.75
      vertex -10 -3.5 -1.75
      vertex -6.26267 -1.8623 -1.75
    endloop
  endfacet
  facet normal -0 0 -1
    outer loop
      vertex -5.36401 -2.22036 -1.75
      vertex -10 -3.5 -1.75
      vertex -5.83281 -2.0902 -1.75
    endloop
  endfacet
  facet normal -0 0 -1
    outer loop
      vertex -4.87819 -2.2467 -1.75
      vertex -10 -3.5 -1.75
      vertex -5.36401 -2.22036 -1.75
    endloop
  endfacet
  facet normal 0 0 -1
    outer loop
      vertex 7.1974 0.483683 -1.75
      vertex 10 3.5 -1.75
      vertex 7.25 0 -1.75
    endloop
  endfacet
  facet normal 0 0 -1
    outer loop
      vertex 7.04204 0.94475 -1.75
      vertex 10 3.5 -1.75
      vertex 7.1974 0.483683 -1.75
    endloop
  endfacet
  facet normal 0 0 -1
    outer loop
      vertex 6.79121 1.36164 -1.75
      vertex 10 3.5 -1.75
      vertex 7.04204 0.94475 -1.75
    endloop
  endfacet
  facet normal 0 0 -1
    outer loop
      vertex 6.45662 1.71486 -1.75
      vertex 10 3.5 -1.75
      vertex 6.79121 1.36164 -1.75
    endloop
  endfacet
  facet normal 0 0 -1
    outer loop
      vertex 6.05392 1.9879 -1.75
      vertex 10 3.5 -1.75
      vertex 6.45662 1.71486 -1.75
    endloop
  endfacet
  facet normal 0 0 -1
    outer loop
      vertex 5.60194 2.16799 -1.75
      vertex 10 3.5 -1.75
      vertex 6.05392 1.9879 -1.75
    endloop
  endfacet
  facet normal 0 0 -1
    outer loop
      vertex 5.12181 2.2467 -1.75
      vertex 10 3.5 -1.75
      vertex 5.60194 2.16799 -1.75
    endloop
  endfacet
  facet normal 0 0 -1
    outer loop
      vertex 4.63599 2.22036 -1.75
      vertex 10 3.5 -1.75
      vertex 5.12181 2.2467 -1.75
    endloop
  endfacet
  facet normal 0 0 -1
    outer loop
      vertex -2.8026 0.483683 -1.75
      vertex 2.76319 0.243267 -1.75
      vertex -2.75 0 -1.75
    endloop
  endfacet
  facet normal 0 0 -1
    outer loop
      vertex 2.76319 0.243267 -1.75
      vertex -2.8026 0.483683 -1.75
      vertex 2.86778 0.718428 -1.75
    endloop
  endfacet
  facet normal 0 0 -1
    outer loop
      vertex -2.95796 0.94475 -1.75
      vertex 2.86778 0.718428 -1.75
      vertex -2.8026 0.483683 -1.75
    endloop
  endfacet
  facet normal 0 0 -1
    outer loop
      vertex 2.86778 0.718428 -1.75
      vertex -2.95796 0.94475 -1.75
      vertex 3.07207 1.16 -1.75
    endloop
  endfacet
  facet normal 0 0 -1
    outer loop
      vertex -3.20879 1.36164 -1.75
      vertex 3.07207 1.16 -1.75
      vertex -2.95796 0.94475 -1.75
    endloop
  endfacet
  facet normal 0 0 -1
    outer loop
      vertex 3.07207 1.16 -1.75
      vertex -3.20879 1.36164 -1.75
      vertex 3.36651 1.54732 -1.75
    endloop
  endfacet
  facet normal 0 0 -1
    outer loop
      vertex -3.54338 1.71486 -1.75
      vertex 3.36651 1.54732 -1.75
      vertex -3.20879 1.36164 -1.75
    endloop
  endfacet
  facet normal 0 0 -1
    outer loop
      vertex 3.36651 1.54732 -1.75
      vertex -3.54338 1.71486 -1.75
      vertex 3.73733 1.8623 -1.75
    endloop
  endfacet
  facet normal 0 0 -1
    outer loop
      vertex -3.94608 1.9879 -1.75
      vertex 3.73733 1.8623 -1.75
      vertex -3.54338 1.71486 -1.75
    endloop
  endfacet
  facet normal 0 0 -1
    outer loop
      vertex 3.73733 1.8623 -1.75
      vertex -3.94608 1.9879 -1.75
      vertex 4.16719 2.0902 -1.75
    endloop
  endfacet
  facet normal 0 0 -1
    outer loop
      vertex -4.39806 2.16799 -1.75
      vertex 4.16719 2.0902 -1.75
      vertex -3.94608 1.9879 -1.75
    endloop
  endfacet
  facet normal 0 0 -1
    outer loop
      vertex 4.16719 2.0902 -1.75
      vertex -4.39806 2.16799 -1.75
      vertex 4.63599 2.22036 -1.75
    endloop
  endfacet
  facet normal 0 0 -1
    outer loop
      vertex -4.87819 2.2467 -1.75
      vertex 4.63599 2.22036 -1.75
      vertex -4.39806 2.16799 -1.75
    endloop
  endfacet
  facet normal 0 0 -1
    outer loop
      vertex 4.63599 2.22036 -1.75
      vertex -4.87819 2.2467 -1.75
      vertex 10 3.5 -1.75
    endloop
  endfacet
  facet normal 0 0 -1
    outer loop
      vertex -10 3.5 -1.75
      vertex -4.87819 2.2467 -1.75
      vertex -5.36401 2.22036 -1.75
    endloop
  endfacet
  facet normal 0 0 -1
    outer loop
      vertex -10 3.5 -1.75
      vertex -7.23681 0.243267 -1.75
      vertex -10 -3.5 -1.75
    endloop
  endfacet
  facet normal 0 0 -1
    outer loop
      vertex -7.23681 0.243267 -1.75
      vertex -10 3.5 -1.75
      vertex -7.13222 0.718428 -1.75
    endloop
  endfacet
  facet normal 0 0 -1
    outer loop
      vertex -4.87819 2.2467 -1.75
      vertex -10 3.5 -1.75
      vertex 10 3.5 -1.75
    endloop
  endfacet
  facet normal 0 0 -1
    outer loop
      vertex -5.83281 2.0902 -1.75
      vertex -10 3.5 -1.75
      vertex -5.36401 2.22036 -1.75
    endloop
  endfacet
  facet normal 0 0 -1
    outer loop
      vertex -6.26267 1.8623 -1.75
      vertex -10 3.5 -1.75
      vertex -5.83281 2.0902 -1.75
    endloop
  endfacet
  facet normal 0 0 -1
    outer loop
      vertex -6.63349 1.54732 -1.75
      vertex -10 3.5 -1.75
      vertex -6.26267 1.8623 -1.75
    endloop
  endfacet
  facet normal 0 0 -1
    outer loop
      vertex -6.92793 1.16 -1.75
      vertex -10 3.5 -1.75
      vertex -6.63349 1.54732 -1.75
    endloop
  endfacet
  facet normal 0 0 -1
    outer loop
      vertex -7.13222 0.718428 -1.75
      vertex -10 3.5 -1.75
      vertex -6.92793 1.16 -1.75
    endloop
  endfacet
  facet normal 0 -1 0
    outer loop
      vertex -10 -3.5 -1.75
      vertex 10 -3.5 1.75
      vertex -10 -3.5 1.75
    endloop
  endfacet
  facet normal 0 -1 -0
    outer loop
      vertex 10 -3.5 1.75
      vertex -10 -3.5 -1.75
      vertex 10 -3.5 -1.75
    endloop
  endfacet
endsolid OpenSCAD_Model
